<svg xmlns="http://www.w3.org/2000/svg" viewBox="0 0 269 498"><path d="M134.4 175.6c-22 0-39.8 17.8-39.8 39.8 0 22 17.8 39.8 39.8 39.8 22 0 39.8-17.8 39.8-39.8 0-22-17.9-39.8-39.8-39.8zm0 65.6c-14.3 0-25.8-11.6-25.8-25.8s11.6-25.8 25.8-25.8 25.8 11.6 25.8 25.8c0 14.2-11.6 25.8-25.8 25.8zM134.4 77c-22 0-39.8 17.8-39.8 39.8 0 22 17.8 39.8 39.8 39.8s39.8-17.8 39.8-39.8c0-21.9-17.9-39.7-39.8-39.8zm0 65.7c-14.3 0-25.8-11.6-25.8-25.8 0-14.3 11.6-25.8 25.8-25.8s25.8 11.6 25.8 25.8c0 14.2-11.6 25.7-25.8 25.8zM134.4 274.1c-22 0-39.8 17.8-39.8 39.8 0 22 17.8 39.8 39.8 39.8 22 0 39.8-17.8 39.8-39.8 0-22-17.9-39.8-39.8-39.8zm0 65.6c-14.3 0-25.8-11.6-25.8-25.8 0-14.3 11.6-25.8 25.8-25.8s25.8 11.6 25.8 25.8c0 14.3-11.6 25.8-25.8 25.8z"/><path d="M260.9 93.1c1.8-2.1 2.2-5.1 1.1-7.6s-3.6-4.2-6.4-4.3h-48.2V58.6c-.1-4-3.2-7.2-7.2-7.4h-3.8V40.6c0-2.4-1.3-4.7-3.4-6L138.1 1c-2.3-1.4-5.1-1.4-7.3 0l-55 33.7c-2.1 1.3-3.4 3.5-3.4 6v10.6h-3.8c-4 .2-7.1 3.4-7.2 7.4v22.6H13.2c-2.8.1-5.2 1.7-6.4 4.3s-.7 5.5 1 7.6L61.3 154v21.3H13.2c-2.8.1-5.2 1.8-6.4 4.3-1.1 2.5-.7 5.5 1 7.6L61.3 248v22.2H13.2c-2.7-.1-5.2 1.4-6.4 3.9-1.2 2.4-.8 5.4 1 7.4L61.4 342v30.2c.1 3.9 3.3 7 7.2 6.9h40.8v112.2c0 1.8.8 3.6 2.1 4.9 1.3 1.3 3.1 2 5 1.9h35.8c1.8.1 3.6-.6 5-1.9 1.3-1.3 2.1-3 2.1-4.9V379.1h40.8c3.9.1 7.1-3 7.2-6.9V342l53.5-60.7c1.8-2 2.2-4.8 1.1-7.3-1.2-2.5-3.7-4-6.4-3.9h-48.2v-22.2l53.5-60.7c1.8-2.1 2.2-5.1 1.1-7.7-1.1-2.6-3.6-4.3-6.4-4.3h-48.2v-21.3l53.5-60.8zM240 95.2l-32.7 37.5V95.2H240zM86.4 44.6l48-29.3 48 29.3v6.7h-96v-6.7zM28.7 95.2h32.7v37.5L28.7 95.2zm0 93.9h32.7v37.6l-32.7-37.6zm0 95h32.7v36.7l-32.7-36.7zM145.4 484h-22V379.1h22V484zm47.9-118.9H75.4V65.2h117.9v299.9zm46.7-81l-32.7 36.7v-36.7H240zm0-95l-32.7 37.6v-37.6H240z"/></svg>